<?xml version="1.0" encoding="UTF-8"?>
<svg version="1.1" xmlns="http://www.w3.org/2000/svg" width="195" height="108">
<path d="M0 0 C64.35 0 128.7 0 195 0 C195 35.64 195 71.28 195 108 C130.65 108 66.3 108 0 108 C0 72.36 0 36.72 0 0 Z " fill="#0E2237" transform="translate(0,0)"/>
<path d="M0 0 C5.58756541 4.33661793 9.24489175 10.00554802 11.84375 16.5625 C11.51375 17.2225 11.18375 17.8825 10.84375 18.5625 C10.39386719 18.17578125 9.94398437 17.7890625 9.48046875 17.390625 C-3.04169844 7.25243754 -17.68383256 6.47324854 -33.15625 7.5625 C-40.64932941 8.38827893 -48.1042277 9.57259567 -55.54321289 10.78369141 C-82.12476396 15.03708202 -82.12476396 15.03708202 -91.90625 8.8125 C-94.4854545 6.2332955 -95.85367873 3.96365831 -97.15625 0.5625 C-96.82625 -0.4275 -96.49625 -1.4175 -96.15625 -2.4375 C-94.67125 -1.4475 -94.67125 -1.4475 -93.15625 -0.4375 C-80.35467748 5.86239821 -61.24867009 0.30114528 -47.984375 -2.52734375 C-32.13615097 -5.86784302 -14.27776883 -9.51851255 0 0 Z " fill="#F88B2B" transform="translate(105.15625,86.4375)"/>
<path d="M0 0 C4.84873277 4.12388593 8.73316706 8.09483772 11.25390625 13.9765625 C10.92390625 14.6365625 10.59390625 15.2965625 10.25390625 15.9765625 C9.73183594 15.58984375 9.20976563 15.203125 8.671875 14.8046875 C-3.73620002 6.02559414 -15.74079063 4.40113806 -30.5390625 6.51953125 C-33.61909128 7.11705023 -36.67412903 7.77015389 -39.72607422 8.49707031 C-42.76384341 9.21814581 -45.8117908 9.89224556 -48.85961914 10.56933594 C-50.40546949 10.91408824 -51.95031089 11.2634093 -53.49389648 11.61816406 C-65.02187884 14.24165694 -77.72067873 16.3739414 -88.74609375 10.9765625 C-92.5057377 8.52462079 -94.85549219 6.07286588 -96.74609375 1.9765625 C-96.41609375 0.9865625 -96.08609375 -0.0034375 -95.74609375 -1.0234375 C-94.47765625 -0.0334375 -94.47765625 -0.0334375 -93.18359375 0.9765625 C-79.28041168 8.80580932 -55.12211116 -0.24450675 -40.74609375 -4.0234375 C-39.57433594 -4.36955078 -39.57433594 -4.36955078 -38.37890625 -4.72265625 C-25.94901312 -8.13241292 -10.55466965 -7.77712501 0 0 Z " fill="#F78A2B" transform="translate(100.74609375,73.0234375)"/>
<path d="M0 0 C2.52238016 1.44569283 4.76363535 3.14739023 7 5 C8.299375 3.7625 8.299375 3.7625 9.625 2.5 C11.89655901 0.6433862 13.00004804 -0.00001124 15.9375 -0.6875 C20.33559083 0.29982651 22.85885439 2.87744105 26 6 C26.61875 5.195625 27.2375 4.39125 27.875 3.5625 C30 1 30 1 32 0 C36.65408901 -0.4136968 39.25239476 0.18929607 43 3 C45.42130331 6.63195496 45.21022785 8.38349348 45.125 12.6875 C45.10695312 13.86699219 45.08890625 15.04648437 45.0703125 16.26171875 C45.04710937 17.16535156 45.02390625 18.06898437 45 19 C32.47710309 19.9150696 32.47710309 19.9150696 28.95703125 17.734375 C27.18659185 15.59531039 26 13.83158856 26 11 C21.05 11 16.1 11 11 11 C13.38949213 15.12082838 13.38949213 15.12082838 16.04296875 15.390625 C16.75066406 15.34421875 17.45835938 15.2978125 18.1875 15.25 C20.0746875 15.12625 20.0746875 15.12625 22 15 C22 15.99 22 16.98 22 18 C18.77518921 19.6124054 15.48584376 19.60679502 12 19 C9.60553585 17.56130936 7.99797988 15.99797988 6 14 C5.34 14.825 4.68 15.65 4 16.5 C0.93824083 19.05146597 0.50475786 19.36154915 -3.1875 19.375 C-7 19 -7 19 -9 18 C-9 20.31 -9 22.62 -9 25 C-10.32 25 -11.64 25 -13 25 C-13.1356886 22.12340174 -13.23440753 19.25326537 -13.3125 16.375 C-13.35439453 15.56675781 -13.39628906 14.75851563 -13.43945312 13.92578125 C-13.52644152 9.64595214 -13.36802858 6.87117329 -10.60546875 3.4765625 C-6.94405263 -0.0037041 -5.03456677 -0.56995096 0 0 Z " fill="#E9EBED" transform="translate(56,38)"/>
<path d="M0 0 C3.13710677 1.35465974 3.91755623 1.86161224 5.75 4.9375 C11.74896074 21.42626359 0.65577825 41.42423395 -6.12817383 56.04174805 C-8.23853021 60.50042053 -10.41300758 64.79513907 -13 69 C-16.64572278 68.69618977 -17.74203039 68.3029751 -20.171875 65.44921875 C-20.77515625 64.64097656 -21.3784375 63.83273438 -22 63 C-21.60731934 62.20529297 -21.21463867 61.41058594 -20.81005859 60.59179688 C-5.37251498 31.68157258 -5.37251498 31.68157258 0 0 Z " fill="#969797" transform="translate(26,5)"/>
<path d="M0 0 C3.80489745 1.49478114 5.66190835 3.69442214 8 7 C13.16410217 22.49230651 5.50139032 39.31707684 -0.5625 53.3125 C-1.04565674 54.42931152 -1.52881348 55.54612305 -2.02661133 56.69677734 C-2.49349365 57.74172363 -2.96037598 58.78666992 -3.44140625 59.86328125 C-3.86107666 60.80469971 -4.28074707 61.74611816 -4.71313477 62.71606445 C-6 65 -6 65 -9 67 C-11.48046875 67.1953125 -11.48046875 67.1953125 -14.1875 67.125 C-15.08855469 67.10695313 -15.98960938 67.08890625 -16.91796875 67.0703125 C-17.60503906 67.04710938 -18.29210938 67.02390625 -19 67 C-17.66530708 63.56475008 -16.19490714 60.24688642 -14.57421875 56.9375 C-7.11607159 41.75391642 -7.11607159 41.75391642 -1 26 C-0.63648438 24.9790625 -0.63648438 24.9790625 -0.265625 23.9375 C1.97623239 16.66661116 2.25002462 7.27207959 0 0 Z " fill="#919292" transform="translate(34,8)"/>
<path d="M0 0 C12.55555556 0 12.55555556 0 16 3 C18.4915904 6.7373856 18.45793285 8.57331583 18 13 C15.86320715 16.38939556 14.8225233 17.72582557 11 19 C9.60560336 19.06665376 8.20830125 19.08538199 6.8125 19.0625 C4.9253125 19.0315625 4.9253125 19.0315625 3 19 C3 21.31 3 23.62 3 26 C2.01 26 1.02 26 0 26 C0 17.42 0 8.84 0 0 Z " fill="#F2F3F4" transform="translate(119,31)"/>
<path d="M0 0 C3.49406769 1.66762322 4.82670681 2.74006022 7 6 C7.1953125 9.13671875 7.1953125 9.13671875 7.125 12.6875 C7.10695313 13.86699219 7.08890625 15.04648437 7.0703125 16.26171875 C7.04710938 17.16535156 7.02390625 18.06898437 7 19 C-5.3848571 19.90498279 -5.3848571 19.90498279 -9.0078125 17.875 C-11.78497758 14.68209164 -13.17415593 11.17974238 -13 7 C-9.66297175 1.38594071 -6.45179411 -0.50602307 0 0 Z " fill="#E7E9EB" transform="translate(94,38)"/>
<path d="M0 0 C4.27876075 2.45632562 4.27876075 2.45632562 6 5 C6.80921878 8.17374456 6.75359702 10.81878511 6 14 C4.00772296 17.05067422 2.66317126 18.59426669 -0.9375 19.47265625 C-4.92381856 19.76710023 -6.63442228 19.26446048 -9.9375 16.875 C-12.23581926 13.67128224 -13 11.93377716 -13 8 C-10.34253904 1.98574625 -6.69943193 -1.07190911 0 0 Z " fill="#EDEFF0" transform="translate(150,38)"/>
<path d="M0 0 C3.375 2.125 3.375 2.125 6 5 C6 6.98 6 8.96 6 11 C1.38 11 -3.24 11 -8 11 C-5.61050787 15.12082838 -5.61050787 15.12082838 -2.95703125 15.390625 C-2.24933594 15.34421875 -1.54164062 15.2978125 -0.8125 15.25 C1.0746875 15.12625 1.0746875 15.12625 3 15 C3 15.99 3 16.98 3 18 C-0.22878519 19.6143926 -3.50903682 19.5818272 -7 19 C-10.59385281 16.47665654 -11.76154966 14.72859825 -13.125 10.5625 C-12.95278418 5.65434903 -11.46551473 4.38492136 -8 1 C-5.09704195 -0.45147903 -3.22738221 -0.37239025 0 0 Z " fill="#E8EAEC" transform="translate(75,38)"/>
<path d="M0 0 C-0.66 0.66 -1.32 1.32 -2 2 C-2.55034912 1.78996338 -3.10069824 1.57992676 -3.66772461 1.36352539 C-9.07057974 -0.58480998 -13.82595191 -1.57782853 -19.5625 -1.5625 C-20.38459961 -1.5637085 -21.20669922 -1.56491699 -22.05371094 -1.56616211 C-33.49959429 -1.28732047 -44.74028598 1.30852686 -55.921875 3.58984375 C-82.23245818 8.93609703 -82.23245818 8.93609703 -92 4 C-92.99 3.34 -93.98 2.68 -95 2 C-94.67 1.01 -94.34 0.02 -94 -1 C-92.6696875 -0.2884375 -92.6696875 -0.2884375 -91.3125 0.4375 C-77.26367316 7.06430512 -58.79928204 1.74520403 -44.58203125 -2.3046875 C-29.20507856 -6.44553104 -14.46879796 -7.04567553 0 0 Z " fill="#303035" transform="translate(104,83)"/>
<path d="M0 0 C0.33 0 0.66 0 1 0 C2.19442009 22.12995001 -8.51424794 42.07149452 -19 61 C-19.67612419 62.3285625 -20.34786461 63.65949948 -21 65 C-22.32 64.34 -23.64 63.68 -25 63 C-24.43925781 62.53464844 -23.87851562 62.06929687 -23.30078125 61.58984375 C-20.07589039 57.95978833 -18.23982439 53.93800788 -16.1875 49.5625 C-15.75244141 48.63816162 -15.31738281 47.71382324 -14.86914062 46.76147461 C-8.83072289 33.61857827 -3.72383948 20.09976785 -2.38671875 5.6171875 C-2 3 -2 3 0 0 Z " fill="#1A2B3E" transform="translate(35,12)"/>
<path d="M0 0 C0.90492188 0.02320313 1.80984375 0.04640625 2.7421875 0.0703125 C4.10730469 0.09738281 4.10730469 0.09738281 5.5 0.125 C6.19867188 0.14820313 6.89734375 0.17140625 7.6171875 0.1953125 C7.6171875 1.5153125 7.6171875 2.8353125 7.6171875 4.1953125 C4.6471875 4.1953125 1.6771875 4.1953125 -1.3828125 4.1953125 C-1.0528125 5.1853125 -0.7228125 6.1753125 -0.3828125 7.1953125 C1.72303188 8.00094888 1.72303188 8.00094888 4.1796875 8.3828125 C5.00597656 8.54136719 5.83226562 8.69992188 6.68359375 8.86328125 C7.32167969 8.97285156 7.95976562 9.08242188 8.6171875 9.1953125 C9.95865091 15.65872713 9.95865091 15.65872713 8.5234375 17.9140625 C5.78763565 19.75288014 3.68818384 19.48792529 0.4296875 19.3828125 C-0.65699219 19.35574219 -1.74367187 19.32867187 -2.86328125 19.30078125 C-4.11044922 19.24857422 -4.11044922 19.24857422 -5.3828125 19.1953125 C-5.0528125 17.8753125 -4.7228125 16.5553125 -4.3828125 15.1953125 C-1.0828125 15.1953125 2.2171875 15.1953125 5.6171875 15.1953125 C5.2871875 14.2053125 4.9571875 13.2153125 4.6171875 12.1953125 C3.5240625 12.1128125 2.4309375 12.0303125 1.3046875 11.9453125 C-2.3828125 11.1953125 -2.3828125 11.1953125 -4.3828125 9.4453125 C-5.66414646 6.56231109 -5.39331768 5.14909689 -4.3828125 2.1953125 C-2.3828125 0.1953125 -2.3828125 0.1953125 0 0 Z " fill="#E7E8EB" transform="translate(162.3828125,37.8046875)"/>
<path d="M0 0 C0.99 0 1.98 0 3 0 C3.33 3.96 3.66 7.92 4 12 C5.11375 10.7625 5.11375 10.7625 6.25 9.5 C9 7 9 7 13 7 C11.70700306 9.88437779 10.34058637 11.87219421 8 14 C9.09907608 16.56451085 10.0984449 18.09554946 12.125 20.0625 C14 22 14 22 14 25 C10.60807637 24.40716379 8.7892243 23.23256811 6.25 20.9375 C5.32960938 20.11572266 5.32960938 20.11572266 4.390625 19.27734375 C3.93171875 18.85582031 3.4728125 18.43429688 3 18 C3 20.31 3 22.62 3 25 C2.01 25 1.02 25 0 25 C0 16.75 0 8.5 0 0 Z " fill="#F4F5F6" transform="translate(103,32)"/>
<path d="M0 0 C1.258125 -0.04125 2.51625 -0.0825 3.8125 -0.125 C4.52019531 -0.14820313 5.22789063 -0.17140625 5.95703125 -0.1953125 C8 0 8 0 11 2 C11.4375 5.4375 11.4375 5.4375 11 9 C9.4375 10.9375 9.4375 10.9375 7 12 C3.25 12.1875 3.25 12.1875 0 12 C0 8.04 0 4.08 0 0 Z " fill="#1E3145" transform="translate(122,35)"/>
<path d="M0 0 C1.9375 1.0625 1.9375 1.0625 3 3 C2.875 6.5625 2.875 6.5625 2 10 C-1 12 -1 12 -3.5 11.8125 C-6.23145737 10.92477635 -7.39120004 10.37086309 -9 8 C-9.42822025 5.14519831 -9.40659584 3.65507108 -7.875 1.1875 C-5.12844028 -0.55198782 -3.18153026 -0.39769128 0 0 Z " fill="#1A2D42" transform="translate(56,42)"/>
<path d="M0 0 C1.875 1.1875 1.875 1.1875 3 3 C3.59636329 6.3225955 3.29109393 7.57455503 1.375 10.375 C-1 12 -1 12 -4.125 11.9375 C-7 11 -7 11 -9 8 C-9.35384949 5.16920408 -9.3920891 3.63169911 -7.875 1.1875 C-5.12844028 -0.55198782 -3.18153026 -0.39769128 0 0 Z " fill="#192C41" transform="translate(150,42)"/>
<path d="M0 0 C1.670625 0.37125 1.670625 0.37125 3.375 0.75 C4.75625018 3.51250036 4.56579306 5.69731099 4.375 8.75 C2.375 10.75 2.375 10.75 -1.125 11 C-4.625 10.75 -4.625 10.75 -6.625 8.75 C-6.9375 5.25 -6.9375 5.25 -6.625 1.75 C-3.625 -0.25 -3.625 -0.25 0 0 Z " fill="#13263C" transform="translate(92.625,42.25)"/>
<path d="M0 0 C0.72888428 -0.00386719 1.45776855 -0.00773437 2.20874023 -0.01171875 C9.44881924 0.1400218 15.29771153 2.26508127 21.8125 5.4375 C21.1525 6.0975 20.4925 6.7575 19.8125 7.4375 C18.63816406 6.94636719 17.46382812 6.45523438 16.25390625 5.94921875 C9.52969127 3.70781376 2.76025986 4.11525375 -4.25 4.25 C-5.60610486 4.26508044 -6.96222602 4.27876288 -8.31835938 4.29101562 C-11.60849602 4.32614164 -14.89778183 4.3753336 -18.1875 4.4375 C-13.73553801 -0.01446199 -6.02877878 0.02245617 0 0 Z " fill="#3D3634" transform="translate(82.1875,77.5625)"/>
<path d="M0 0 C0.33 0 0.66 0 1 0 C1.50656441 9.38551286 1.26531994 18.41670186 -3 27 C-5.140625 28.359375 -5.140625 28.359375 -7 29 C-6.58427734 27.44152344 -6.58427734 27.44152344 -6.16015625 25.8515625 C-4.33736799 18.87759803 -2.59735567 12.15629406 -2.2734375 4.91796875 C-2 3 -2 3 0 0 Z " fill="#2A3848" transform="translate(35,12)"/>
<path d="M0 0 C1.66015625 0.74869792 3.3203125 1.49739583 4.98046875 2.24609375 C10.11185296 4.16167818 15.39979597 4.28573978 20.8125 4.5625 C21.60076172 4.60568359 22.38902344 4.64886719 23.20117188 4.69335938 C25.13394215 4.79878321 27.06695026 4.89983094 29 5 C29 5.33 29 5.66 29 6 C21.11203185 7.88392249 10.38545326 8.75239367 3 5 C2.01 4.34 1.02 3.68 0 3 C0 2.01 0 1.02 0 0 Z " fill="#202936" transform="translate(9,82)"/>
<path d="M0 0 C5.75 -0.125 5.75 -0.125 8 1 C8 1.99 8 2.98 8 4 C4.7 4 1.4 4 -2 4 C-1.34 2.68 -0.68 1.36 0 0 Z " fill="#12263B" transform="translate(69,42)"/>
<path d="M0 0 C0.99 0 1.98 0 3 0 C1.25 5.75 1.25 5.75 -1 8 C-1.66 8 -2.32 8 -3 8 C-1.125 2.25 -1.125 2.25 0 0 Z " fill="#1F3144" transform="translate(24,50)"/>
</svg>
